<svg width="21" height="19" viewBox="0 0 21 19" fill="none" xmlns="http://www.w3.org/2000/svg">
    <path d="M14.4951 0.0300538C16.0232 0.144284 17.4595 0.803141 18.5429 1.88681C19.1374 2.48097 19.609 3.18646 19.9308 3.96297C20.2526 4.73947 20.4182 5.57178 20.4182 6.41232C20.4182 7.25286 20.2526 8.08517 19.9308 8.86167C19.609 9.63818 19.1374 10.3437 18.5429 10.9378L10.9408 18.5399C10.846 18.6355 10.7331 18.7114 10.6087 18.7632C10.4844 18.815 10.351 18.8417 10.2163 18.8417C10.0816 18.8417 9.94824 18.815 9.8239 18.7632C9.69955 18.7114 9.58669 18.6355 9.49183 18.5399L1.88979 10.9378C0.741645 9.7977 0.068137 8.26488 0.00489327 6.64805C-0.0583504 5.03122 0.493368 3.45047 1.54895 2.22414C2.60453 0.997805 4.08555 0.216975 5.69379 0.0388868C7.30203 -0.139201 8.91801 0.298683 10.2163 1.26436C11.4488 0.35381 12.9671 -0.0841759 14.4951 0.0300538Z" fill="#EB5757"/>
</svg>
