<svg width="25" height="24" viewBox="0 0 25 24" fill="none" xmlns="http://www.w3.org/2000/svg">
<path d="M17.4532 2.88005C17.337 2.76364 17.1991 2.67129 17.0472 2.60827C16.8954 2.54525 16.7326 2.51282 16.5682 2.51282C16.4037 2.51282 16.2409 2.54525 16.0891 2.60827C15.9372 2.67129 15.7993 2.76364 15.6832 2.88005L7.27316 11.2901C7.18045 11.3826 7.10691 11.4925 7.05672 11.6134C7.00654 11.7344 6.98071 11.8641 6.98071 11.9951C6.98071 12.126 7.00654 12.2557 7.05672 12.3767C7.10691 12.4976 7.18045 12.6075 7.27316 12.7001L15.6832 21.1101C16.1732 21.6001 16.9632 21.6001 17.4532 21.1101C17.9432 20.6201 17.9432 19.8301 17.4532 19.3401L10.1132 12.0001L17.4632 4.65005C17.9432 4.16005 17.9432 3.37005 17.4532 2.88005Z" fill="#F2F2F2"/>
</svg>
