<svg width="18" height="18" viewBox="0 0 18 18" fill="none" xmlns="http://www.w3.org/2000/svg">
<path fill-rule="evenodd" clip-rule="evenodd" d="M18 9C18 9.34093 17.8815 9.6679 17.6705 9.90897C17.4596 10.1501 17.1735 10.2855 16.8751 10.2855H3.84233L8.67254 15.8028C8.77713 15.9223 8.86009 16.0642 8.91669 16.2203C8.97329 16.3765 9.00243 16.5439 9.00243 16.7129C9.00243 16.8819 8.97329 17.0493 8.91669 17.2055C8.86009 17.3616 8.77713 17.5035 8.67254 17.623C8.56796 17.7425 8.44379 17.8373 8.30715 17.902C8.1705 17.9667 8.02404 18 7.87613 18C7.72822 18 7.58176 17.9667 7.44512 17.902C7.30847 17.8373 7.18431 17.7425 7.07972 17.623L0.330474 9.91012C0.225718 9.79071 0.142606 9.64886 0.0858978 9.49268C0.0291896 9.33651 0 9.16909 0 9C0 8.83092 0.0291896 8.66349 0.0858978 8.50732C0.142606 8.35114 0.225718 8.20929 0.330474 8.08988L7.07972 0.376985C7.29094 0.135606 7.57742 0 7.87613 0C8.17484 0 8.46132 0.135606 8.67254 0.376985C8.88376 0.618364 9.00243 0.945745 9.00243 1.28711C9.00243 1.62847 8.88376 1.95585 8.67254 2.19723L3.84233 7.71452H16.8751C17.1735 7.71452 17.4596 7.84995 17.6705 8.09103C17.8815 8.3321 18 8.65907 18 9Z" fill="white"/>
</svg>
