<?xml version="1.0" encoding="iso-8859-1"?>
<!-- Uploaded to: SVG Repo, www.svgrepo.com, Generator: SVG Repo Mixer Tools -->
<svg version="1.1" id="Layer_1" xmlns="http://www.w3.org/2000/svg" xmlns:xlink="http://www.w3.org/1999/xlink" 
	 viewBox="0 0 512 512" xml:space="preserve">
<path style="fill:#666666;" d="M510.495,228.218C496.646,99.903,387.996,0,256,0C114.615,0,0,114.616,0,256
	c0,113.885,74.374,210.384,177.194,243.621L510.495,228.218z"/>
<path style="fill:#383838;" d="M326.105,177.394L204.96,56.249l-15.743,143.743L94.609,417.035l82.586,82.586
	C202.022,507.647,228.501,512,256,512c141.384,0,256-114.616,256-256c0-9.389-0.52-18.655-1.506-27.782L338.525,56.249
	L326.105,177.394z"/>
<polygon style="fill:#999999;" points="345.043,177.731 345.043,224.111 300.522,224.111 300.522,177.731 322.783,155.47 "/>
<g>
	<path style="fill:#B2B2B2;" d="M345.043,71.992v105.739h-44.522V71.992c0-12.299,9.962-22.261,22.261-22.261
		C335.082,49.731,345.043,59.693,345.043,71.992z"/>
	<polygon style="fill:#B2B2B2;" points="211.478,177.731 211.478,224.111 166.957,224.111 166.957,177.731 189.217,155.47 	"/>
</g>
<path style="fill:#CCCCCC;" d="M211.478,71.992v105.739h-44.522V71.992c0-12.299,9.962-22.261,22.261-22.261
	S211.478,59.693,211.478,71.992z"/>
<polygon style="fill:#FDBA4C;" points="222.609,222.255 256,417.035 417.391,417.035 450.783,244.516 "/>
<g>
	<polygon style="fill:#FFD652;" points="256,222.255 256,417.035 94.609,417.035 61.217,244.516 	"/>
	<polygon style="fill:#FFD652;" points="222.609,218.025 256,394.774 399.026,394.774 428.927,240.286 	"/>
</g>
<polygon style="fill:#FBE287;" points="83.073,240.286 112.974,394.774 256,394.774 256,218.025 "/>
<g>
	<rect x="141.245" y="218.023" style="fill:#FDBA4C;" width="22.261" height="154.49"/>
	<rect x="210.332" y="218.023" style="fill:#FDBA4C;" width="22.261" height="154.49"/>
</g>
<g>
	<rect x="279.407" y="218.023" style="fill:#FB9D46;" width="22.261" height="154.49"/>
	<rect x="348.494" y="218.023" style="fill:#FB9D46;" width="22.261" height="154.49"/>
</g>
<polygon style="fill:#4F5AA8;" points="473.043,199.992 473.043,244.513 256,244.513 233.739,222.255 256,199.992 "/>
<rect x="38.957" y="199.992" style="fill:#4A75C3;" width="217.043" height="44.522"/>
</svg>