<svg width="22" height="22" viewBox="0 0 22 22" fill="none" xmlns="http://www.w3.org/2000/svg">
<path d="M8.25 2.75002V0.916687H13.75V2.75002H8.25ZM10.0833 12.8334H11.9167V7.33335H10.0833V12.8334ZM11 20.1667C9.86944 20.1667 8.80367 19.9491 7.80267 19.514C6.80228 19.0783 5.92778 18.4861 5.17917 17.7375C4.43056 16.9889 3.83839 16.1144 3.40267 15.114C2.96756 14.113 2.75 13.0472 2.75 11.9167C2.75 10.7861 2.96756 9.72035 3.40267 8.71935C3.83839 7.71897 4.43056 6.84446 5.17917 6.09585C5.92778 5.34724 6.80228 4.75538 7.80267 4.32027C8.80367 3.88455 9.86944 3.66669 11 3.66669C11.9472 3.66669 12.8563 3.81946 13.7271 4.12502C14.5979 4.43058 15.4153 4.87363 16.1792 5.45419L17.4625 4.17085L18.7458 5.45419L17.4625 6.73752C18.0431 7.50141 18.4861 8.31877 18.7917 9.1896C19.0972 10.0604 19.25 10.9695 19.25 11.9167C19.25 13.0472 19.0324 14.113 18.5973 15.114C18.1616 16.1144 17.5694 16.9889 16.8208 17.7375C16.0722 18.4861 15.1977 19.0783 14.1973 19.514C13.1963 19.9491 12.1306 20.1667 11 20.1667ZM11 18.3334C12.7722 18.3334 14.2847 17.707 15.5375 16.4542C16.7903 15.2014 17.4167 13.6889 17.4167 11.9167C17.4167 10.1445 16.7903 8.63197 15.5375 7.37919C14.2847 6.12641 12.7722 5.50002 11 5.50002C9.22778 5.50002 7.71528 6.12641 6.4625 7.37919C5.20972 8.63197 4.58333 10.1445 4.58333 11.9167C4.58333 13.6889 5.20972 15.2014 6.4625 16.4542C7.71528 17.707 9.22778 18.3334 11 18.3334Z" fill="#F2F2F2"/>
</svg>
