<svg width="34" height="26" viewBox="0 0 34 26" fill="none" xmlns="http://www.w3.org/2000/svg">
<path d="M31.6667 0H2.11111C1.55121 0 1.01424 0.22242 0.61833 0.61833C0.22242 1.01424 0 1.55121 0 2.11111V23.2222C0 23.7821 0.22242 24.3191 0.61833 24.715C1.01424 25.1109 1.55121 25.3333 2.11111 25.3333H31.6667C32.2266 25.3333 32.7635 25.1109 33.1595 24.715C33.5554 24.3191 33.7778 23.7821 33.7778 23.2222V2.11111C33.7778 1.55121 33.5554 1.01424 33.1595 0.61833C32.7635 0.22242 32.2266 0 31.6667 0ZM31.6667 2.11111V14.7778H2.11111V2.11111H31.6667ZM2.11111 23.2222V19H31.6667V23.2222H2.11111Z" fill="#8D8D8D"/>
</svg>
