<svg width="32" height="32" viewBox="0 0 32 32" fill="none" xmlns="http://www.w3.org/2000/svg">
<path d="M26.6665 10.6667L18.6665 3.65334C17.9332 2.9974 16.9838 2.63477 15.9999 2.63477C15.016 2.63477 14.0666 2.9974 13.3332 3.65334L5.33322 10.6667C4.90971 11.0454 4.57175 11.5101 4.34184 12.0297C4.11194 12.5493 3.99537 13.1118 3.99988 13.68V25.3333C3.99988 26.3942 4.42131 27.4116 5.17146 28.1618C5.9216 28.9119 6.93902 29.3333 7.99988 29.3333H23.9999C25.0607 29.3333 26.0782 28.9119 26.8283 28.1618C27.5785 27.4116 27.9999 26.3942 27.9999 25.3333V13.6667C28.0025 13.1008 27.885 12.5407 27.6552 12.0236C27.4253 11.5064 27.0884 11.0439 26.6665 10.6667ZM18.6665 26.6667H13.3332V20C13.3332 19.6464 13.4737 19.3072 13.7237 19.0572C13.9738 18.8071 14.3129 18.6667 14.6665 18.6667H17.3332C17.6868 18.6667 18.026 18.8071 18.276 19.0572C18.5261 19.3072 18.6665 19.6464 18.6665 20V26.6667ZM25.3332 25.3333C25.3332 25.687 25.1927 26.0261 24.9427 26.2761C24.6926 26.5262 24.3535 26.6667 23.9999 26.6667H21.3332V20C21.3332 18.9391 20.9118 17.9217 20.1616 17.1716C19.4115 16.4214 18.3941 16 17.3332 16H14.6665C13.6057 16 12.5883 16.4214 11.8381 17.1716C11.088 17.9217 10.6665 18.9391 10.6665 20V26.6667H7.99988C7.64626 26.6667 7.30712 26.5262 7.05707 26.2761C6.80702 26.0261 6.66655 25.687 6.66655 25.3333V13.6667C6.66679 13.4774 6.70734 13.2903 6.78551 13.1178C6.86367 12.9454 6.97766 12.7916 7.11988 12.6667L15.1199 5.66667C15.3632 5.45292 15.676 5.33503 15.9999 5.33503C16.3238 5.33503 16.6366 5.45292 16.8799 5.66667L24.8799 12.6667C25.0221 12.7916 25.1361 12.9454 25.2143 13.1178C25.2924 13.2903 25.333 13.4774 25.3332 13.6667V25.3333Z" fill="#A36200"/>
</svg>
