<svg width="32" height="32" viewBox="0 0 32 32" fill="none" xmlns="http://www.w3.org/2000/svg">
<path d="M9.2798 27.5996C11.754 27.5996 13.7598 25.5939 13.7598 23.1196C13.7598 20.6454 11.754 18.6396 9.2798 18.6396C6.80557 18.6396 4.7998 20.6454 4.7998 23.1196C4.7998 25.5939 6.80557 27.5996 9.2798 27.5996Z" stroke="#00A372" stroke-width="1.7" stroke-miterlimit="10"/>
<path d="M25.7998 13.5998H18.5998C18.1198 13.5998 17.7998 13.2798 17.7998 12.7998V5.5998C17.7998 5.1198 18.1198 4.7998 18.5998 4.7998H25.7998C26.2798 4.7998 26.5998 5.1198 26.5998 5.5998V12.7998C26.5998 13.2798 26.2798 13.5998 25.7998 13.5998Z" stroke="#00A372" stroke-width="1.7" stroke-miterlimit="10"/>
<path d="M25.7997 27.5997C25.6397 27.5997 25.4797 27.5997 25.3197 27.4397L17.9597 20.0797C17.6397 19.7597 17.6397 19.2797 17.9597 18.9597C18.2797 18.6397 18.7597 18.6397 19.0797 18.9597L26.4397 26.3197C26.7597 26.6397 26.7597 27.1197 26.4397 27.4397C26.2797 27.5997 26.1197 27.5997 25.7997 27.5997Z" fill="#00A372"/>
<path d="M18.4396 27.5997C18.5996 27.5997 18.7596 27.5997 18.9196 27.4397L26.2796 20.0797C26.5996 19.7597 26.5996 19.2797 26.2796 18.9597C25.9596 18.6397 25.4796 18.6397 25.1596 18.9597L17.7996 26.3197C17.4796 26.6397 17.4796 27.1197 17.7996 27.4397C18.1196 27.5997 18.2796 27.5997 18.4396 27.5997Z" fill="#00A372"/>
<path d="M12.9601 13.6H5.60005C4.96005 13.6 4.64005 13.12 4.80005 12.64L8.48005 5.28004C8.80005 4.80004 9.60005 4.80004 9.76005 5.28004L13.44 12.64C13.76 13.12 13.4401 13.6 12.9601 13.6Z" stroke="#00A372" stroke-width="1.7" stroke-miterlimit="10"/>
</svg>
