<svg width="15" height="11" viewBox="0 0 15 11" fill="none" xmlns="http://www.w3.org/2000/svg">
    <path d="M9.81044 5.63505C9.81044 6.23449 9.57232 6.80938 9.14845 7.23325C8.72458 7.65712 8.14968 7.89525 7.55024 7.89525C6.9508 7.89525 6.37591 7.65712 5.95204 7.23325C5.52817 6.80938 5.29004 6.23449 5.29004 5.63505C5.29004 5.03561 5.52817 4.46072 5.95204 4.03685C6.37591 3.61298 6.9508 3.37485 7.55024 3.37485C8.14968 3.37485 8.72458 3.61298 9.14845 4.03685C9.57232 4.46072 9.81044 5.03561 9.81044 5.63505Z" fill="#9796A1" fill-opacity="0.6"/>
    <path fill-rule="evenodd" clip-rule="evenodd" d="M0.317627 5.63501C0.317627 5.63501 3.02987 0.662561 7.55027 0.662561C12.0707 0.662561 14.7829 5.63501 14.7829 5.63501C14.7829 5.63501 12.0707 10.6075 7.55027 10.6075C3.02987 10.6075 0.317627 5.63501 0.317627 5.63501ZM7.55027 8.79929C8.38949 8.79929 9.19434 8.46591 9.78776 7.87249C10.3812 7.27907 10.7146 6.47423 10.7146 5.63501C10.7146 4.79579 10.3812 3.99094 9.78776 3.39752C9.19434 2.8041 8.38949 2.47072 7.55027 2.47072C6.71105 2.47072 5.90621 2.8041 5.31279 3.39752C4.71937 3.99094 4.38599 4.79579 4.38599 5.63501C4.38599 6.47423 4.71937 7.27907 5.31279 7.87249C5.90621 8.46591 6.71105 8.79929 7.55027 8.79929Z" fill="#9796A1" fill-opacity="0.6"/>
    <path fill-rule="evenodd" clip-rule="evenodd" d="M0.317627 5.63501C0.317627 5.63501 3.02987 0.662561 7.55027 0.662561C12.0707 0.662561 14.7829 5.63501 14.7829 5.63501C14.7829 5.63501 12.0707 10.6075 7.55027 10.6075C3.02987 10.6075 0.317627 5.63501 0.317627 5.63501ZM7.55027 8.79929C8.38949 8.79929 9.19434 8.46591 9.78776 7.87249C10.3812 7.27907 10.7146 6.47423 10.7146 5.63501C10.7146 4.79579 10.3812 3.99094 9.78776 3.39752C9.19434 2.8041 8.38949 2.47072 7.55027 2.47072C6.71105 2.47072 5.90621 2.8041 5.31279 3.39752C4.71937 3.99094 4.38599 4.79579 4.38599 5.63501C4.38599 6.47423 4.71937 7.27907 5.31279 7.87249C5.90621 8.46591 6.71105 8.79929 7.55027 8.79929Z" fill="#9796A1" fill-opacity="0.6"/>
</svg>
