<svg width="25" height="25" viewBox="0 0 25 25" fill="none" xmlns="http://www.w3.org/2000/svg">
<path d="M24.5 12.7778C24.5 11.75 24.4166 11 24.2361 10.2222H12.5V14.8611H19.3888C19.25 16.0139 18.5 17.75 16.8333 18.9166L16.8099 19.0719L20.5207 21.9466L20.7778 21.9722C23.1388 19.7916 24.5 16.5833 24.5 12.7778Z" fill="#4285F4"/>
<path d="M12.5 25C15.8749 25 18.7082 23.8888 20.7777 21.9722L16.8333 18.9166C15.7777 19.6527 14.361 20.1666 12.5 20.1666C9.19442 20.1666 6.38888 17.9861 5.38879 14.9722L5.2422 14.9847L1.38371 17.9708L1.33325 18.1111C3.38879 22.1944 7.61102 25 12.5 25Z" fill="#34A853"/>
<path d="M5.38884 14.9723C5.12495 14.1945 4.97223 13.3611 4.97223 12.5C4.97223 11.6389 5.12495 10.8056 5.37495 10.0278L5.36796 9.86215L1.46113 6.82806L1.3333 6.88886C0.486116 8.58333 0 10.4861 0 12.5C0 14.5139 0.486116 16.4166 1.3333 18.1111L5.38884 14.9723Z" fill="#FBBC05"/>
<path d="M12.5 4.8333C14.8471 4.8333 16.4304 5.84719 17.3333 6.69447L20.861 3.25C18.6944 1.23612 15.8749 0 12.5 0C7.61102 0 3.38879 2.80553 1.33325 6.88884L5.3749 10.0278C6.38888 7.01388 9.19442 4.8333 12.5 4.8333Z" fill="#EB4335"/>
</svg>
