<svg width="32" height="32" viewBox="0 0 32 32" fill="none" xmlns="http://www.w3.org/2000/svg">
<path d="M11.1539 4.00305C7.21935 4.00305 4.00186 7.18902 4.00187 11.1044C4.0394 12.0779 4.20149 13.1654 4.40029 14.0066H2.99605C1.6325 13.9764 1.6325 16.0371 2.99605 16.0065H5.02527C6.77765 20.5603 10.6991 25.1133 15.5092 27.8674C15.8156 28.0416 16.1911 28.0416 16.4975 27.8674C19.6775 26.0467 22.5124 23.3152 24.5811 20.3247C25.5509 18.9228 26.3472 17.464 26.9307 16.0065H29.0028C30.3664 16.0367 30.3664 13.976 29.0028 14.0066H27.5849C27.8493 12.9982 27.9857 12.0581 27.999 11.1044C27.999 7.18902 24.7795 4.00305 20.845 4.00305C19.0134 4.00305 17.2915 4.69932 15.9936 5.88778C14.6967 4.70227 12.9838 4.00305 11.1539 4.00305ZM11.1539 6.00496C12.7476 6.00496 14.216 6.72449 15.1772 7.91495C15.5501 8.37698 16.2411 8.41428 16.6615 7.99511C17.9014 6.90612 19.4474 6.02768 20.845 6.00496C23.6609 6.00496 25.9182 8.20634 25.9912 10.9676C25.9284 12.0378 25.764 13.141 25.5088 14.0066H21.0012C20.7362 14.0046 20.4812 14.1079 20.2922 14.2938L19.2727 15.3134L17.8939 12.5596C17.5247 11.825 16.4761 11.825 16.1069 12.5596L15.103 14.5673L13.9292 11.6299C13.7762 11.247 13.404 10.9974 12.9917 11.001C12.6584 11.0043 12.3486 11.1733 12.1656 11.4521L10.4665 14.0067H6.51544C6.22998 12.9422 6.03781 11.8973 6.01156 10.9228C6.10795 8.18279 8.35332 6.00508 11.1539 6.00508V6.00496ZM12.7769 14.1394L14.0698 17.3717C14.3879 18.1732 15.5033 18.2233 15.892 17.4537L16.9994 15.239L18.1068 17.4537C18.4129 18.0634 19.2263 18.1944 19.7083 17.7115L21.4133 16.0065H24.7491C24.2677 17.0662 23.6578 18.1427 22.9347 19.1879C21.1565 21.7586 18.6532 24.0239 16.0034 25.6682C12.1793 23.2952 8.98009 19.5725 7.30057 16.0065H10.9977C11.3345 16.0064 11.6487 15.8367 11.8336 15.5553L12.7769 14.1394Z" fill="#00A3A3"/>
</svg>
