<svg width="27" height="27" viewBox="0 0 27 27" fill="none" xmlns="http://www.w3.org/2000/svg">
<path d="M26.324 13.7553L14.324 0.422C13.8186 -0.140667 12.848 -0.140667 12.3426 0.422L0.342645 13.7553C0.16992 13.9468 0.0565446 14.1843 0.0163041 14.439C-0.0239365 14.6937 0.0106917 14.9546 0.115978 15.19C0.329312 15.6713 0.806645 15.9807 1.33331 15.9807H3.99998V25.314C3.99998 25.6676 4.14045 26.0068 4.3905 26.2568C4.64055 26.5069 4.97969 26.6473 5.33331 26.6473H9.33331C9.68693 26.6473 10.0261 26.5069 10.2761 26.2568C10.5262 26.0068 10.6666 25.6676 10.6666 25.314V19.9807H16V25.314C16 25.6676 16.1405 26.0068 16.3905 26.2568C16.6406 26.5069 16.9797 26.6473 17.3333 26.6473H21.3333C21.6869 26.6473 22.0261 26.5069 22.2761 26.2568C22.5262 26.0068 22.6666 25.6676 22.6666 25.314V15.9807H25.3333C25.5915 15.9818 25.8445 15.9077 26.0614 15.7675C26.2782 15.6273 26.4496 15.4271 26.5546 15.1912C26.6596 14.9553 26.6938 14.6939 26.6528 14.439C26.6118 14.184 26.4976 13.9465 26.324 13.7553Z" fill="#8D8D8D"/>
</svg>
