<svg width="28" height="28" viewBox="0 0 28 28" fill="none" xmlns="http://www.w3.org/2000/svg">
    <path d="M15.47 3.5C9.53167 3.33666 4.66667 8.10833 4.66667 14H2.57833C2.05333 14 1.79667 14.63 2.17 14.9917L5.425 18.2583C5.65833 18.4917 6.02 18.4917 6.25333 18.2583L9.50833 14.9917C9.58895 14.9094 9.64342 14.8052 9.66488 14.692C9.68634 14.5788 9.67382 14.4619 9.6289 14.3558C9.58399 14.2498 9.50869 14.1594 9.41249 14.0961C9.31629 14.0328 9.2035 13.9993 9.08833 14H7C7 9.45 10.71 5.775 15.2833 5.83333C19.6233 5.89166 23.275 9.54333 23.3333 13.8833C23.3917 18.445 19.7167 22.1667 15.1667 22.1667C13.2883 22.1667 11.55 21.525 10.1733 20.44C9.94987 20.264 9.66951 20.1762 9.38556 20.1934C9.10161 20.2106 8.8339 20.3316 8.63333 20.5333C8.14333 21.0233 8.17833 21.8517 8.72667 22.2717C10.5596 23.7212 12.8298 24.5067 15.1667 24.5C21.0583 24.5 25.83 19.635 25.6667 13.6967C25.515 8.225 20.9417 3.65166 15.47 3.5ZM14.875 9.33333C14.3967 9.33333 14 9.73 14 10.2083V14.5017C14 14.91 14.2217 15.295 14.5717 15.505L18.2117 17.6633C18.6317 17.9083 19.1683 17.7683 19.4133 17.36C19.6583 16.94 19.5183 16.4033 19.11 16.1583L15.75 14.1633V10.1967C15.75 9.73 15.3533 9.33333 14.875 9.33333Z" fill="#00B0D7"/>
</svg>
