<svg width="24" height="24" viewBox="0 0 24 24" fill="none" xmlns="http://www.w3.org/2000/svg">
<path d="M7.58333 10.8333C7.29602 10.8333 7.02047 10.9475 6.8173 11.1506C6.61414 11.3538 6.5 11.6294 6.5 11.9167C6.5 12.204 6.61414 12.4795 6.8173 12.6827C7.02047 12.8859 7.29602 13 7.58333 13H16.25C16.5373 13 16.8129 12.8859 17.016 12.6827C17.2192 12.4795 17.3333 12.204 17.3333 11.9167C17.3333 11.6294 17.2192 11.3538 17.016 11.1506C16.8129 10.9475 16.5373 10.8333 16.25 10.8333H7.58333Z" fill="#DDDDDD"/>
<path fill-rule="evenodd" clip-rule="evenodd" d="M23.8333 11.9167C23.8333 18.4979 18.4979 23.8333 11.9167 23.8333C5.33542 23.8333 0 18.4979 0 11.9167C0 5.33542 5.33542 0 11.9167 0C18.4979 0 23.8333 5.33542 23.8333 11.9167ZM21.6667 11.9167C21.6667 13.1971 21.4145 14.4649 20.9245 15.6478C20.4345 16.8308 19.7163 17.9056 18.811 18.811C17.9056 19.7163 16.8308 20.4345 15.6478 20.9245C14.4649 21.4145 13.1971 21.6667 11.9167 21.6667C10.6363 21.6667 9.36843 21.4145 8.1855 20.9245C7.00258 20.4345 5.92775 19.7163 5.02238 18.811C4.117 17.9056 3.39882 16.8308 2.90884 15.6478C2.41886 14.4649 2.16667 13.1971 2.16667 11.9167C2.16667 9.3308 3.1939 6.85085 5.02238 5.02238C6.85085 3.1939 9.3308 2.16667 11.9167 2.16667C14.5025 2.16667 16.9825 3.1939 18.811 5.02238C20.6394 6.85085 21.6667 9.3308 21.6667 11.9167Z" fill="#DDDDDD"/>
</svg>
