<svg width="23" height="23" viewBox="0 0 23 23" fill="none" xmlns="http://www.w3.org/2000/svg">
    <path d="M18.0417 1.86668C17.9509 1.78873 17.8443 1.73126 17.7292 1.69818C17.6142 1.66511 17.4934 1.65721 17.375 1.67501L6.54169 3.34168C6.3444 3.37161 6.16441 3.47134 6.03442 3.62273C5.90444 3.77413 5.83309 3.96714 5.83335 4.16668V12.7917C5.44399 12.6015 5.01668 12.5018 4.58335 12.5C4.00649 12.5 3.44259 12.6711 2.96294 12.9916C2.4833 13.312 2.10946 13.7676 1.88871 14.3005C1.66795 14.8335 1.61019 15.4199 1.72273 15.9857C1.83527 16.5515 2.11306 17.0712 2.52096 17.4791C2.92886 17.887 3.44856 18.1648 4.01434 18.2773C4.58012 18.3898 5.16656 18.3321 5.69951 18.1113C6.23247 17.8906 6.68799 17.5167 7.00847 17.0371C7.32896 16.5575 7.50002 15.9935 7.50002 15.4167V9.05001L16.6667 7.64168V11.125C16.2773 10.9348 15.85 10.8351 15.4167 10.8333C14.8398 10.8333 14.2759 11.0044 13.7963 11.3249C13.3166 11.6454 12.9428 12.1009 12.722 12.6339C12.5013 13.1668 12.4435 13.7532 12.5561 14.319C12.6686 14.8848 12.9464 15.4045 13.3543 15.8124C13.7622 16.2203 14.2819 16.4981 14.8477 16.6106C15.4135 16.7232 15.9999 16.6654 16.5328 16.4447C17.0658 16.2239 17.5213 15.8501 17.8418 15.3704C18.1623 14.8908 18.3334 14.3269 18.3334 13.75V2.50001C18.3334 2.37965 18.3073 2.26071 18.2569 2.15138C18.2066 2.04204 18.1332 1.94492 18.0417 1.86668ZM4.58335 16.6667C4.33613 16.6667 4.09445 16.5934 3.88889 16.456C3.68333 16.3187 3.52312 16.1234 3.42851 15.895C3.3339 15.6666 3.30914 15.4153 3.35737 15.1728C3.4056 14.9303 3.52466 14.7076 3.69947 14.5328C3.87429 14.358 4.09702 14.2389 4.33949 14.1907C4.58197 14.1425 4.8333 14.1672 5.06171 14.2618C5.29012 14.3564 5.48534 14.5167 5.62269 14.7222C5.76004 14.9278 5.83335 15.1695 5.83335 15.4167C5.83335 15.7482 5.70166 16.0661 5.46724 16.3006C5.23282 16.535 4.91488 16.6667 4.58335 16.6667ZM15.4167 15C15.1695 15 14.9278 14.9267 14.7222 14.7894C14.5167 14.652 14.3564 14.4568 14.2618 14.2284C14.1672 14 14.1425 13.7486 14.1907 13.5062C14.2389 13.2637 14.358 13.0409 14.5328 12.8661C14.7076 12.6913 14.9303 12.5723 15.1728 12.524C15.4153 12.4758 15.6666 12.5006 15.895 12.5952C16.1234 12.6898 16.3187 12.85 16.456 13.0556C16.5934 13.2611 16.6667 13.5028 16.6667 13.75C16.6667 14.0815 16.535 14.3995 16.3006 14.6339C16.0662 14.8683 15.7482 15 15.4167 15ZM16.6667 5.95001L7.50002 7.35835V4.85835L16.6667 3.47501V5.95001Z" fill="#828282"/>
</svg>
