<svg width="21" height="19" viewBox="0 0 21 19" fill="none" xmlns="http://www.w3.org/2000/svg">
    <path d="M18.1892 2.24031L18.1894 2.24048C18.7375 2.7882 19.1723 3.43856 19.4689 4.15438C19.7656 4.87021 19.9182 5.63747 19.9182 6.41232C19.9182 7.18717 19.7656 7.95443 19.4689 8.67026C19.1723 9.38608 18.7375 10.0364 18.1894 10.5842L18.1893 10.5843L10.5873 18.1863L10.5858 18.1878C10.5374 18.2365 10.4799 18.2753 10.4165 18.3017C10.353 18.3281 10.285 18.3417 10.2163 18.3417C10.1476 18.3417 10.0796 18.3281 10.0162 18.3017C9.95276 18.2753 9.89521 18.2365 9.84684 18.1878L9.84538 18.1863L2.24335 10.5843L2.2421 10.583C1.18369 9.53201 0.562812 8.11898 0.504511 6.6285C0.44621 5.13803 0.954812 3.68082 1.9279 2.55032C2.90098 1.41983 4.26627 0.700019 5.74882 0.535849C7.23137 0.371679 8.72107 0.775342 9.91792 1.66555L10.2153 1.88676L10.5134 1.66651C11.6496 0.827117 13.0492 0.42336 14.4578 0.528663C15.8665 0.633965 17.1906 1.24133 18.1892 2.24031Z" stroke="white"/>
</svg>
