<svg width="24" height="39" viewBox="0 0 24 39" fill="none" xmlns="http://www.w3.org/2000/svg">
<path d="M20.4 0H3.6C2.64522 0 1.72955 0.379285 1.05442 1.05442C0.379285 1.72955 0 2.64522 0 3.6L0 34.8C0 35.7548 0.379285 36.6705 1.05442 37.3456C1.72955 38.0207 2.64522 38.4 3.6 38.4H20.4C21.3548 38.4 22.2705 38.0207 22.9456 37.3456C23.6207 36.6705 24 35.7548 24 34.8V3.6C24 2.64522 23.6207 1.72955 22.9456 1.05442C22.2705 0.379285 21.3548 0 20.4 0V0ZM12 36C11.6852 35.9998 11.3736 35.9376 11.0829 35.8169C10.7922 35.6963 10.5281 35.5196 10.3057 35.2969C9.85649 34.8471 9.60438 34.2373 9.6048 33.6016C9.60501 33.2868 9.66721 32.9752 9.78786 32.6845C9.9085 32.3938 10.0852 32.1297 10.3079 31.9073C10.7577 31.4581 11.3675 31.206 12.0032 31.2064C12.6389 31.2068 13.2483 31.4597 13.6975 31.9095C14.1467 32.3593 14.3988 32.9691 14.3984 33.6048C14.398 34.2405 14.1451 34.8499 13.6953 35.2991C13.2455 35.7483 12.6357 36.0004 12 36H11.9984H12ZM20.4 27.904C20.3983 28.1411 20.3034 28.368 20.1357 28.5357C19.968 28.7034 19.7411 28.7983 19.504 28.8H4.4992C4.26157 28.8 4.03366 28.7056 3.86563 28.5376C3.6976 28.3695 3.6032 28.1416 3.6032 27.904V4.5008C3.6032 4.26317 3.6976 4.03526 3.86563 3.86723C4.03366 3.6992 4.26157 3.6048 4.4992 3.6048H19.4976C19.7347 3.60648 19.9616 3.70141 20.1293 3.86908C20.297 4.03676 20.3919 4.26368 20.3936 4.5008L20.4 27.904Z" fill="#031952" fill-opacity="0.86"/>
</svg>
