<?xml version="1.0" encoding="utf-8"?><!-- Uploaded to: SVG Repo, www.svgrepo.com, Generator: SVG Repo Mixer Tools -->
<svg version="1.1" id="designs" xmlns="http://www.w3.org/2000/svg" xmlns:xlink="http://www.w3.org/1999/xlink" 
	 width="800px" height="800px" viewBox="0 0 32 32" xml:space="preserve">
<style type="text/css">
	.sketchy_een{fill:#111918;}
</style>
<path class="sketchy_een" d="M19.296,13.876c-0.003,0.02-0.005,0.04-0.008,0.06c-0.002,0.012-0.004,0.024-0.005,0.037
	C19.287,13.941,19.291,13.908,19.296,13.876z M29.985,25.708c-0.015,0.198-0.067,0.367-0.212,0.512
	c-0.137,0.137-0.321,0.213-0.513,0.213c-0.063,0-0.123-0.021-0.184-0.039c-0.106,0.051-0.221,0.084-0.345,0.084
	c-0.492,0.002-0.987-0.033-1.479-0.052c-0.489-0.015-0.977-0.05-1.465-0.071c-0.508-0.023-1.019-0.017-1.527-0.017
	c-0.517-0.002-1.037-0.004-1.554-0.004c-1.652-0.008-3.304-0.012-4.956,0.021c-0.81,0.015-1.621,0.023-2.433,0.029
	c-0.798,0.004-1.596,0.027-2.396,0.033c-0.746,0.008-1.492,0.004-2.239,0c-0.912-0.004-1.825-0.008-2.737,0.006
	c-0.821,0.012-1.642,0-2.466,0.012c-0.86,0.013-1.719,0.052-2.579,0.073c-0.45,0.013-0.825-0.383-0.825-0.823
	c0-0.114,0.023-0.221,0.066-0.319c-0.01-0.528-0.013-1.056-0.031-1.586c-0.019-0.594-0.031-1.189-0.042-1.783
	c-0.019-1.202-0.044-2.404-0.062-3.606c-0.012-0.792-0.008-1.589,0.013-2.381c0.025-0.863,0.098-1.74,0.273-2.587
	c0.081-0.388,0.165-0.779,0.296-1.154c0.083-0.24,0.173-0.485,0.304-0.704c0.1-0.169,0.21-0.331,0.325-0.488
	c0.158-0.215,0.319-0.429,0.51-0.615c0.179-0.177,0.381-0.329,0.587-0.471c0.358-0.246,0.733-0.467,1.108-0.685
	c0.134-0.079,0.282-0.116,0.429-0.116c0.099,0,0.195,0.023,0.288,0.055C6.193,9.231,6.244,9.21,6.301,9.21
	c0.542,0,1.087,0.006,1.629,0.013c0.425,0.006,0.852,0.008,1.279,0.009c-0.006-0.732-0.02-1.464-0.022-2.197
	c-0.001-0.15,0.056-0.282,0.134-0.4C9.295,6.556,9.27,6.476,9.27,6.391c0-0.467,0.381-0.823,0.839-0.839
	c0.956-0.031,1.91-0.021,2.866-0.019c0.367,0.002,0.735-0.01,1.102-0.019c0.362-0.011,0.723-0.021,1.084-0.021
	c0.092,0,0.183,0.001,0.275,0.002c0.433,0.008,0.792,0.354,0.792,0.792c0,0.188-0.076,0.353-0.187,0.488
	c0.05,0.509,0.081,1.018,0.117,1.529c0.021,0.302,0.045,0.603,0.063,0.906c0.585,0.009,1.17,0.018,1.756,0.032
	c0.737,0.019,1.473,0.015,2.21,0.015c1.469,0,2.939-0.048,4.408-0.071c0.003,0,0.007,0,0.01,0c0.075,0,0.144,0.022,0.212,0.045
	c0.085-0.003,0.169-0.013,0.254-0.013c0.052,0,0.104,0.001,0.156,0.002c0.915,0.021,1.881,0.212,2.608,0.804
	c0.298,0.242,0.554,0.556,0.773,0.871c0.225,0.321,0.402,0.683,0.527,1.054c0.254,0.748,0.321,1.55,0.375,2.335
	c0.056,0.8,0.062,1.602,0.1,2.402c0.071,1.535,0.292,3.058,0.352,4.593c0.031,0.756,0.037,1.512,0.035,2.269
	c-0.002,0.377-0.006,0.756-0.004,1.135C29.992,25.023,30.014,25.367,29.985,25.708z M20.712,14.645
	c-0.008,0.06-0.016,0.12-0.024,0.18c0.009-0.065,0.017-0.129,0.026-0.194C20.713,14.635,20.712,14.64,20.712,14.645z M10.687,7.204
	c0,0.017,0,0.033,0,0.05c-0.006,0.802-0.017,1.604-0.013,2.406c0.004,0.75,0.027,1.5,0.037,2.25c0.01,0.715,0.015,1.431,0.027,2.146
	c0.006,0.358,0.01,0.714,0.021,1.071c0.004,0.121,0.014,0.242,0.024,0.362c0.298,0.016,0.594,0.013,0.891,0.011
	c-0.04-0.323-0.083-0.646-0.111-0.971c-0.04-0.492-0.06-0.987-0.058-1.481c0.004-1.023,0.019-2.048,0.075-3.071
	c0.011-0.181,0.082-0.342,0.186-0.475c0.114-0.304,0.396-0.555,0.727-0.555c0.017,0,0.033,0.001,0.05,0.002
	c0.713,0.055,1.427,0.09,2.142,0.096c-0.039-0.652-0.096-1.303-0.169-1.953c-0.539,0.008-1.078,0.016-1.617,0.025
	C12.161,7.13,11.424,7.169,10.687,7.204z M19.03,24.779c0.012-0.505,0.025-1.009,0.015-1.514c-0.012-0.769-0.027-1.539-0.023-2.308
	c0.006-0.752,0.012-1.506,0.015-2.26c0.004-0.773-0.013-1.546,0-2.317c0.014-0.789,0.129-1.577,0.238-2.358
	c-0.002,0.018-0.005,0.037-0.007,0.056c0.003-0.026,0.007-0.053,0.01-0.079c0.003-0.021,0.006-0.042,0.009-0.062
	c0.042-0.332,0.084-0.663,0.145-0.991c0.06-0.325,0.117-0.656,0.238-0.964c0.09-0.231,0.188-0.44,0.325-0.646
	c0.123-0.187,0.265-0.369,0.415-0.535c0.035-0.038,0.076-0.069,0.112-0.106c-0.151,0-0.302,0.004-0.453,0.004
	c-0.737,0-1.475-0.01-2.214-0.006c-0.783,0.002-1.564,0.015-2.346,0.021c-0.122,0.001-0.233-0.036-0.335-0.089
	c-0.071,0.021-0.142,0.045-0.219,0.046c-0.625,0.01-1.249-0.002-1.873-0.029c-0.023,0.344-0.05,0.687-0.06,1.031
	c-0.013,0.477-0.013,0.956-0.006,1.433c0.006,0.487,0.021,0.973,0.073,1.456c0.048,0.458,0.108,0.912,0.162,1.367
	c0.023,0.19-0.094,0.414-0.225,0.542c-0.029,0.029-0.067,0.043-0.1,0.067c-0.038,0.122-0.095,0.237-0.187,0.329
	c-0.16,0.16-0.348,0.215-0.567,0.235c-0.227,0.019-0.456,0.017-0.685,0.013c-0.098,0-0.198-0.002-0.296-0.002
	c-0.381,0.002-0.762,0.004-1.144-0.002c-0.45-0.008-0.827-0.371-0.827-0.827c0-0.105,0.023-0.206,0.062-0.301
	c0-0.008,0-0.015,0-0.023c0.004-0.327,0.025-0.652,0.017-0.977c-0.008-0.371-0.017-0.74-0.025-1.11
	c-0.015-0.706-0.025-1.414-0.04-2.119c-0.008-0.346-0.005-0.692-0.011-1.039c-0.974,0.019-1.948,0.059-2.922,0.071
	c-0.004,0.002-0.005,0.006-0.009,0.008c-0.404,0.23-0.809,0.457-1.191,0.723c-0.177,0.158-0.335,0.326-0.488,0.506
	c0.002-0.002,0.003-0.004,0.005-0.006c-0.007,0.009-0.015,0.019-0.022,0.028c-0.145,0.195-0.266,0.402-0.371,0.621
	C3.97,13.372,3.81,14.099,3.7,14.84c-0.04,0.328-0.074,0.656-0.089,0.985c-0.04,0.823-0.052,1.646-0.056,2.469
	c-0.002,0.804,0.031,1.61,0.035,2.415c0.007,1.382,0.053,2.764,0.099,4.145c0.838-0.008,1.675-0.013,2.513-0.016
	c1.044-0.004,2.087-0.006,3.131,0.004c0.823,0.008,1.648,0.019,2.471,0.023c0.831,0.006,1.66-0.015,2.49-0.027
	c0.792-0.01,1.585-0.002,2.377-0.019C17.457,24.803,18.243,24.783,19.03,24.779z M28.552,24.828
	c-0.002-0.203-0.004-0.405-0.006-0.607c-0.002-0.525-0.008-1.048-0.013-1.573c-0.01-0.787-0.046-1.569-0.112-2.352
	c-0.062-0.74-0.152-1.479-0.196-2.219c-0.046-0.777-0.077-1.554-0.1-2.333c-0.023-0.723-0.055-1.445-0.139-2.163
	c-0.066-0.414-0.148-0.812-0.29-1.204c-0.106-0.229-0.232-0.443-0.38-0.648c-0.135-0.162-0.28-0.315-0.44-0.454
	c-0.076-0.05-0.154-0.096-0.236-0.137c-0.23-0.081-0.467-0.145-0.707-0.187c-0.48-0.049-0.959-0.045-1.441-0.03
	c-0.464,0.013-0.93,0.042-1.391,0.094c-0.223,0.036-0.436,0.091-0.648,0.169c-0.09,0.044-0.177,0.091-0.262,0.145
	c-0.272,0.226-0.529,0.48-0.756,0.751c-0.102,0.143-0.192,0.288-0.269,0.444c-0.248,0.67-0.35,1.397-0.453,2.101
	c-0.061,0.464-0.119,0.93-0.148,1.396c-0.05,0.767-0.044,1.535-0.046,2.302c-0.002,0.75,0.01,1.5,0.013,2.25
	c0.004,0.767,0,1.537,0.015,2.304c0.012,0.632,0.029,1.265,0.029,1.897c1.165-0.002,2.331-0.004,3.496-0.005
	c0.379,0,0.758-0.003,1.137-0.003c0.411,0,0.821,0.003,1.232,0.016C27.146,24.803,27.849,24.823,28.552,24.828z M19.276,14.023
	c0.001-0.008,0.002-0.016,0.003-0.024c0.001-0.009,0.002-0.017,0.003-0.026C19.28,13.99,19.278,14.006,19.276,14.023z
	 M26.438,13.973c-0.214-0.017-0.427-0.01-0.64-0.006c-0.308,0.002-0.615,0.008-0.923,0.008c-0.662,0-1.323-0.038-1.985-0.052
	c-0.005,0-0.011,0-0.016,0c-0.429,0-0.784,0.377-0.784,0.8c0,0.44,0.363,0.794,0.8,0.8c0.662,0.01,1.323,0.008,1.985,0.021
	c0.185,0.006,0.369,0.004,0.554,0.002c0.337-0.002,0.673-0.004,1.01,0.025c0.435,0.038,0.798-0.392,0.798-0.8
	c0-0.21-0.085-0.415-0.233-0.565C26.843,14.048,26.655,13.99,26.438,13.973z"/>
</svg>