<svg width="26" height="30" viewBox="0 0 26 30" fill="none" xmlns="http://www.w3.org/2000/svg">
<path d="M13 14C14.3076 14 15.5857 13.5895 16.6729 12.8203C17.7601 12.0511 18.6075 10.9579 19.1079 9.67878C19.6082 8.3997 19.7392 6.99223 19.4841 5.63437C19.229 4.2765 18.5993 3.02922 17.6748 2.05025C16.7502 1.07128 15.5722 0.404599 14.2898 0.134502C13.0073 -0.135594 11.6781 0.00302917 10.47 0.532843C9.26201 1.06266 8.2295 1.95986 7.50306 3.11101C6.77662 4.26215 6.38889 5.61553 6.38889 7C6.38889 8.85651 7.08541 10.637 8.32524 11.9497C9.56506 13.2625 11.2466 14 13 14ZM13 2C13.934 2 14.847 2.29324 15.6235 2.84265C16.4001 3.39206 17.0054 4.17295 17.3628 5.08658C17.7202 6.00021 17.8137 7.00555 17.6315 7.97545C17.4493 8.94536 16.9995 9.83627 16.3391 10.5355C15.6787 11.2348 14.8373 11.711 13.9213 11.9039C13.0052 12.0969 12.0558 11.9978 11.1929 11.6194C10.33 11.241 9.5925 10.6001 9.07361 9.77785C8.55473 8.9556 8.27778 7.98891 8.27778 7C8.27778 5.67392 8.77529 4.40215 9.66088 3.46447C10.5465 2.52678 11.7476 2 13 2Z" fill="#8D8D8D"/>
<path d="M24.7772 21.37C23.2626 19.675 21.4375 18.3249 19.4133 17.4022C17.3891 16.4795 15.2085 16.0036 13.0047 16.0036C10.8009 16.0036 8.62032 16.4795 6.59616 17.4022C4.57199 18.3249 2.74682 19.675 1.23222 21.37C0.90385 21.7414 0.721476 22.2313 0.722222 22.74V28C0.722222 28.5304 0.921229 29.0391 1.27546 29.4142C1.6297 29.7893 2.11015 30 2.61111 30H23.3889C23.8899 30 24.3703 29.7893 24.7245 29.4142C25.0788 29.0391 25.2778 28.5304 25.2778 28V22.74C25.2811 22.2326 25.1022 21.7429 24.7772 21.37ZM23.3889 28H2.61111V22.73C3.9496 21.2377 5.56088 20.0493 7.34689 19.2373C9.1329 18.4252 11.0563 18.0065 13 18.0065C14.9437 18.0065 16.8671 18.4252 18.6531 19.2373C20.4391 20.0493 22.0504 21.2377 23.3889 22.73V28Z" fill="#8D8D8D"/>
</svg>
