<svg width="30" height="30" viewBox="0 0 30 30" fill="none" xmlns="http://www.w3.org/2000/svg">
    <path d="M18.75 26.25H16.25V23.75H18.75V26.25ZM16.25 17.5H13.75V23.75H16.25V17.5ZM26.25 15H23.75V20H26.25V15ZM23.75 12.5H21.25V15H23.75V12.5ZM8.75 15H6.25V17.5H8.75V15ZM6.25 12.5H3.75V15H6.25V12.5ZM15 6.25H17.5V3.75H15V6.25ZM5.625 5.625V9.375H9.375V5.625H5.625ZM10 11.25H5C4.3125 11.25 3.75 10.6875 3.75 10V5C3.75 4.3125 4.3125 3.75 5 3.75H10C10.6875 3.75 11.25 4.3125 11.25 5V10C11.25 10.6875 10.6875 11.25 10 11.25ZM5.625 20.625V24.375H9.375V20.625H5.625ZM10 26.25H5C4.3125 26.25 3.75 25.6875 3.75 25V20C3.75 19.3125 4.3125 18.75 5 18.75H10C10.6875 18.75 11.25 19.3125 11.25 20V25C11.25 25.6875 10.6875 26.25 10 26.25ZM20.625 5.625V9.375H24.375V5.625H20.625ZM25 11.25H20C19.3125 11.25 18.75 10.6875 18.75 10V5C18.75 4.3125 19.3125 3.75 20 3.75H25C25.6875 3.75 26.25 4.3125 26.25 5V10C26.25 10.6875 25.6875 11.25 25 11.25ZM23.75 23.75V20H18.75V22.5H21.25V26.25H26.25V23.75H23.75ZM21.25 15H16.25V17.5H21.25V15ZM16.25 12.5H8.75V15H11.25V17.5H13.75V15H16.25V12.5ZM17.5 11.25V8.75H15V6.25H12.5V11.25H17.5ZM8.4375 6.5625H6.5625V8.4375H8.4375V6.5625ZM8.4375 21.5625H6.5625V23.4375H8.4375V21.5625ZM23.4375 6.5625H21.5625V8.4375H23.4375V6.5625Z" fill="#D9D9D9"/>
</svg>
