<svg width="40" height="40" viewBox="0 0 40 40" fill="none" xmlns="http://www.w3.org/2000/svg">
    <g clip-path="url(#clip0_25_259)">
        <path d="M0 1.25C0 0.918479 0.131696 0.600537 0.366117 0.366117C0.600537 0.131696 0.918479 0 1.25 0L8.75 0C9.08152 0 9.39946 0.131696 9.63388 0.366117C9.8683 0.600537 10 0.918479 10 1.25C10 1.58152 9.8683 1.89946 9.63388 2.13388C9.39946 2.3683 9.08152 2.5 8.75 2.5C5.29822 2.5 2.5 5.29822 2.5 8.75C2.5 9.08152 2.3683 9.39946 2.13388 9.63388C1.89946 9.8683 1.58152 10 1.25 10C0.918479 10 0.600537 9.8683 0.366117 9.63388C0.131696 9.39946 0 9.08152 0 8.75V1.25ZM30 1.25C30 0.918479 30.1317 0.600537 30.3661 0.366117C30.6005 0.131696 30.9185 0 31.25 0L38.75 0C39.0815 0 39.3995 0.131696 39.6339 0.366117C39.8683 0.600537 40 0.918479 40 1.25V8.75C40 9.08152 39.8683 9.39946 39.6339 9.63388C39.3995 9.8683 39.0815 10 38.75 10C38.4185 10 38.1005 9.8683 37.8661 9.63388C37.6317 9.39946 37.5 9.08152 37.5 8.75C37.5 5.29822 34.7018 2.5 31.25 2.5C30.9185 2.5 30.6005 2.3683 30.3661 2.13388C30.1317 1.89946 30 1.58152 30 1.25ZM1.25 30C1.58152 30 1.89946 30.1317 2.13388 30.3661C2.3683 30.6005 2.5 30.9185 2.5 31.25C2.5 34.7018 5.29822 37.5 8.75 37.5C9.08152 37.5 9.39946 37.6317 9.63388 37.8661C9.8683 38.1005 10 38.4185 10 38.75C10 39.0815 9.8683 39.3995 9.63388 39.6339C9.39946 39.8683 9.08152 40 8.75 40H1.25C0.918479 40 0.600537 39.8683 0.366117 39.6339C0.131696 39.3995 0 39.0815 0 38.75V31.25C0 30.9185 0.131696 30.6005 0.366117 30.3661C0.600537 30.1317 0.918479 30 1.25 30ZM38.75 30C39.0815 30 39.3995 30.1317 39.6339 30.3661C39.8683 30.6005 40 30.9185 40 31.25V38.75C40 39.0815 39.8683 39.3995 39.6339 39.6339C39.3995 39.8683 39.0815 40 38.75 40H31.25C30.9185 40 30.6005 39.8683 30.3661 39.6339C30.1317 39.3995 30 39.0815 30 38.75C30 38.4185 30.1317 38.1005 30.3661 37.8661C30.6005 37.6317 30.9185 37.5 31.25 37.5C34.7018 37.5 37.5 34.7018 37.5 31.25C37.5 30.9185 37.6317 30.6005 37.8661 30.3661C38.1005 30.1317 38.4185 30 38.75 30ZM10 11.25C10 10.5596 10.5596 10 11.25 10C11.9404 10 12.5 10.5596 12.5 11.25C12.5 11.9404 11.9404 12.5 11.25 12.5C10.5596 12.5 10 11.9404 10 11.25Z" fill="#333333"/>
        <path d="M17.5 5H5V17.5H17.5V5ZM7.5 7.5H15V15H7.5V7.5ZM12.5 27.5H10V30H12.5V27.5Z" fill="white"/>
        <path d="M17.5 22.5H5V35H17.5V22.5ZM7.5 25H15V32.5H7.5V25ZM27.5 10H30V12.5H27.5V10Z" fill="white"/>
        <path d="M22.5 5H35V17.5H22.5V5ZM25 7.5V15H32.5V7.5H25ZM20 20V25H22.5V27.5H20V30H25V25H27.5V30H30V27.5H35V25H27.5V20H20ZM25 25H22.5V22.5H25V25ZM35 30H32.5V32.5H27.5V35H35V30ZM25 35V32.5H20V35H25Z" fill="white"/>
        <path d="M30 22.5H35V20H30V22.5Z" fill="white"/>
        <circle cx="11.2223" cy="11.2223" r="1.44444" fill="white"/>
        <path d="M0.777832 19.9998L39.5556 19.6665" stroke="#333333" stroke-width="7" stroke-linecap="round" stroke-linejoin="round"/>
    </g>
    <defs>
        <clipPath id="clip0_25_259">
            <rect width="40" height="40" fill="white"/>
        </clipPath>
    </defs>
</svg>
