<svg width="24" height="24" viewBox="0 0 24 24" fill="none" xmlns="http://www.w3.org/2000/svg">
<g clip-path="url(#clip0_51_14)">
<path d="M19.5926 3H5.37037C4.05481 3 3 3.9 3 5V19C3 20.1 4.05481 21 5.37037 21H21.963C23.2667 21 24.3333 20.1 24.3333 19V7L19.5926 3ZM21.963 19H5.37037V5H18.6089L21.963 7.83V19ZM13.6667 12C11.6993 12 10.1111 13.34 10.1111 15C10.1111 16.66 11.6993 18 13.6667 18C15.6341 18 17.2222 16.66 17.2222 15C17.2222 13.34 15.6341 12 13.6667 12ZM6.55556 6H17.2222V10H6.55556V6Z" fill="white"/>
</g>
<defs>
<clipPath id="clip0_51_14">
<rect width="24" height="24" fill="white"/>
</clipPath>
</defs>
</svg>
