<svg width="25" height="25" viewBox="0 0 25 25" fill="none" xmlns="http://www.w3.org/2000/svg">
<path d="M7.5 20C6.125 20 5.0125 21.125 5.0125 22.5C5.0125 23.875 6.125 25 7.5 25C8.875 25 10 23.875 10 22.5C10 21.125 8.875 20 7.5 20ZM20 20C18.625 20 17.5125 21.125 17.5125 22.5C17.5125 23.875 18.625 25 20 25C21.375 25 22.5 23.875 22.5 22.5C22.5 21.125 21.375 20 20 20ZM18.1875 13.75C19.125 13.75 19.95 13.2375 20.375 12.4625L24.85 4.35C24.9553 4.16053 25.0094 3.94684 25.0068 3.73007C25.0042 3.5133 24.945 3.30096 24.8352 3.11408C24.7253 2.92719 24.5686 2.77223 24.3804 2.66452C24.1923 2.55682 23.9793 2.50011 23.7625 2.5H5.2625L4.0875 0H0V2.5H2.5L7 11.9875L5.3125 15.0375C4.4 16.7125 5.6 18.75 7.5 18.75H22.5V16.25H7.5L8.875 13.75H18.1875ZM6.45 5H21.6375L18.1875 11.25H9.4125L6.45 5Z" fill="#A32E2E"/>
</svg>
