<svg width="32" height="32" viewBox="0 0 32 32" fill="none" xmlns="http://www.w3.org/2000/svg">
<path d="M25.8434 26.722C25.5984 26.722 25.3549 26.641 25.1554 26.4835L17.3349 20.3425C17.0664 20.1315 16.9094 19.809 16.9094 19.4675V9.26855C16.9094 8.92655 17.0659 8.60405 17.3344 8.39355L25.1549 2.25105C25.4904 1.98855 25.9459 1.93905 26.3299 2.12555C26.7129 2.31155 26.9559 2.70005 26.9559 3.12655V25.609C26.9559 26.035 26.7129 26.424 26.3299 26.61C26.1749 26.685 26.0084 26.722 25.8434 26.722ZM19.1354 18.926L24.7299 23.3195V5.41605L19.1354 9.81005V18.926Z" fill="#A30089"/>
<path d="M18.0225 20.5535H6.186C2.775 20.5535 0 17.779 0 14.3675C0 10.957 2.775 8.18201 6.186 8.18201H18.0225C18.637 8.18201 19.1355 8.68001 19.1355 9.29551V19.4405C19.1355 20.055 18.637 20.5535 18.0225 20.5535ZM6.186 10.408C4.0025 10.408 2.226 12.184 2.226 14.3675C2.226 16.551 4.0025 18.3275 6.186 18.3275H16.9095V10.408H6.186Z" fill="#A30089"/>
<path d="M8.59191 29.987C7.86591 29.987 7.15491 29.7765 6.53241 29.37C5.68641 28.818 5.10591 27.969 4.89791 26.9815L3.29041 19.3385C3.16391 18.737 3.54891 18.1465 4.15041 18.02C4.75341 17.893 5.34241 18.279 5.46891 18.88L7.07691 26.523C7.16241 26.9295 7.40091 27.2785 7.74991 27.5065C8.09741 27.733 8.51241 27.8125 8.91891 27.726C9.75691 27.5485 10.2959 26.721 10.1194 25.8835L8.81241 19.669C8.68591 19.0675 9.07141 18.4775 9.67291 18.3505C10.2749 18.2245 10.8644 18.6095 10.9909 19.211L12.2979 25.425C12.7264 27.462 11.4174 29.4715 9.37991 29.904C9.11691 29.9595 8.85291 29.987 8.59191 29.987ZM27.5659 18.802H25.8424C25.2279 18.802 24.7294 18.304 24.7294 17.6885C24.7294 17.074 25.2279 16.5755 25.8424 16.5755H27.5659C28.1554 16.5755 28.7094 16.3465 29.1249 15.9305C29.5434 15.5125 29.7739 14.9575 29.7739 14.367C29.7739 13.149 28.7834 12.159 27.5659 12.159H25.8424C25.2279 12.159 24.7294 11.6605 24.7294 11.0455C24.7294 10.4305 25.2279 9.9325 25.8424 9.9325H27.5659C30.0109 9.9325 31.9999 11.9215 31.9999 14.3665C31.9999 15.551 31.5379 16.6655 30.6989 17.5045C29.8629 18.342 28.7499 18.802 27.5659 18.802Z" fill="#A30089"/>
</svg>
