<svg width="96" height="82" viewBox="0 0 96 82" fill="none" xmlns="http://www.w3.org/2000/svg">
<path d="M81.2902 46.722V64.8945C81.2902 69.4281 79.6805 73.3046 76.4613 76.5238C73.2421 79.7431 69.3656 81.3527 64.832 81.3527H17.2863C12.7527 81.3527 8.87623 79.7431 5.65699 76.5238C2.43775 73.3046 0.828125 69.4281 0.828125 64.8945V17.3488C0.828125 12.8152 2.43775 8.93874 5.65699 5.71949C8.87623 2.50025 12.7527 0.890625 17.2863 0.890625H64.832C67.2322 0.890625 69.4609 1.36684 71.5181 2.31928C72.0896 2.58597 72.4325 3.02409 72.5468 3.63365C72.6611 4.28131 72.4896 4.83372 72.0325 5.29089L69.2323 8.09106C68.8513 8.47204 68.4132 8.66253 67.9179 8.66253C67.8036 8.66253 67.6322 8.62443 67.4036 8.54823C66.5274 8.31965 65.6702 8.20536 64.832 8.20536H17.2863C14.7718 8.20536 12.6193 9.10065 10.8287 10.8912C9.03815 12.6818 8.14286 14.8343 8.14286 17.3488V64.8945C8.14286 67.409 9.03815 69.5615 10.8287 71.3521C12.6193 73.1427 14.7718 74.0379 17.2863 74.0379H64.832C67.3465 74.0379 69.499 73.1427 71.2896 71.3521C73.0801 69.5615 73.9754 67.409 73.9754 64.8945V50.3794C73.9754 49.8841 74.1469 49.465 74.4898 49.1221L78.1471 45.4648C78.5281 45.0838 78.9662 44.8933 79.4615 44.8933C79.6901 44.8933 79.9187 44.9505 80.1472 45.0647C80.9092 45.3695 81.2902 45.9219 81.2902 46.722ZM94.491 18.7774L47.9739 65.2946C47.0595 66.2089 45.9737 66.6661 44.7165 66.6661C43.4593 66.6661 42.3735 66.2089 41.4592 65.2946L16.8862 40.7216C15.9719 39.8073 15.5147 38.7215 15.5147 37.4643C15.5147 36.2071 15.9719 35.1213 16.8862 34.2069L23.1723 27.9208C24.0867 27.0065 25.1725 26.5493 26.4297 26.5493C27.6869 26.5493 28.7727 27.0065 29.687 27.9208L44.7165 42.9503L81.6902 5.97665C82.6045 5.06231 83.6903 4.60514 84.9475 4.60514C86.2048 4.60514 87.2905 5.06231 88.2049 5.97665L94.491 12.2627C95.4053 13.1771 95.8625 14.2629 95.8625 15.5201C95.8625 16.7773 95.4053 17.8631 94.491 18.7774Z" fill="#8685E7"/>
</svg>
