<svg width="32" height="32" viewBox="0 0 32 32" fill="none" xmlns="http://www.w3.org/2000/svg">
<g clip-path="url(#clip0_2_13403)">
<path d="M25.3333 6.66931H22.6667C21.196 6.66931 20 7.86531 20 9.33598V13.336H12V9.33598C12 7.86531 10.804 6.66931 9.33333 6.66931H6.66667C5.196 6.66931 4 7.86531 4 9.33598V20.0026C4 21.4733 5.196 22.6693 6.66667 22.6693H9.33333C10.804 22.6693 12 21.4733 12 20.0026V16.0026H20V20.0026C20 21.4733 21.196 22.6693 22.6667 22.6693H25.3333C26.804 22.6693 28 21.4733 28 20.0026V9.33598C28 7.86531 26.804 6.66931 25.3333 6.66931ZM6.66667 20.0026V9.33598H9.33333L9.33467 20.0026H6.66667ZM22.6667 20.0026V9.33598H25.3333L25.3347 20.0026H22.6667ZM29.3333 12.0026H32V17.336H29.3333V12.0026ZM0 12.0026H2.66667V17.336H0V12.0026Z" fill="#00A32F"/>
</g>
<defs>
<clipPath id="clip0_2_13403">
<rect width="32" height="32.0027" fill="white"/>
</clipPath>
</defs>
</svg>
