<svg width="33" height="8" viewBox="0 0 33 8" fill="none" xmlns="http://www.w3.org/2000/svg">
<path d="M3.58333 5.16667C4.45778 5.16667 5.16667 4.45778 5.16667 3.58333C5.16667 2.70888 4.45778 2 3.58333 2C2.70888 2 2 2.70888 2 3.58333C2 4.45778 2.70888 5.16667 3.58333 5.16667Z" stroke="#031952" stroke-width="4"/>
<path d="M16.25 5.16667C17.1245 5.16667 17.8333 4.45778 17.8333 3.58333C17.8333 2.70888 17.1245 2 16.25 2C15.3756 2 14.6667 2.70888 14.6667 3.58333C14.6667 4.45778 15.3756 5.16667 16.25 5.16667Z" stroke="#031952" stroke-width="4"/>
<path d="M28.9167 5.16667C29.7911 5.16667 30.5 4.45778 30.5 3.58333C30.5 2.70888 29.7911 2 28.9167 2C28.0422 2 27.3333 2.70888 27.3333 3.58333C27.3333 4.45778 28.0422 5.16667 28.9167 5.16667Z" stroke="#031952" stroke-width="4"/>
</svg>
