<svg width="26" height="32" viewBox="0 0 26 32" fill="none" xmlns="http://www.w3.org/2000/svg">
<path d="M21.7708 2.69146e-08C22.6735 -0.000110868 23.5426 0.342468 24.2024 0.958501C24.8623 1.57454 25.2636 2.41808 25.3254 3.31867L25.3333 3.56092V28.0994C25.3334 29.0021 24.9909 29.8712 24.3748 30.531C23.7588 31.1909 22.9153 31.5922 22.0147 31.654L21.7708 31.6619H3.5625C2.6598 31.662 1.79072 31.3195 1.13089 30.7034C0.471065 30.0874 0.0697017 29.2438 0.00791688 28.3433L2.69146e-08 28.1026V3.5625C-0.000110868 2.6598 0.342467 1.79072 0.958501 1.13089C1.57453 0.471064 2.41808 0.0697017 3.31867 0.00791688L3.5625 2.69146e-08H21.7708ZM21.7708 2.375H3.5625C3.27554 2.37501 2.99829 2.47893 2.78203 2.66755C2.56576 2.85616 2.42511 3.11671 2.38608 3.401L2.375 3.5625V28.101C2.375 28.7027 2.8215 29.1998 3.401 29.2774L3.5625 29.2885H21.7708C22.0578 29.2885 22.335 29.1846 22.5513 28.996C22.7676 28.8073 22.9082 28.5468 22.9473 28.2625L22.9583 28.101V3.5625C22.9583 3.27554 22.8544 2.99829 22.6658 2.78203C22.4772 2.56576 22.2166 2.42511 21.9323 2.38608L21.7708 2.37342V2.375ZM13.0593 17.4103C13.3623 17.4073 13.6551 17.5201 13.8776 17.7258C14.1001 17.9316 14.2355 18.2146 14.2562 18.5169C14.2768 18.8192 14.1811 19.118 13.9886 19.352C13.7961 19.5861 13.5215 19.7377 13.2208 19.7758L13.0593 19.7853H5.9375C5.63663 19.7852 5.34701 19.6709 5.12716 19.4655C4.90732 19.2601 4.77363 18.9789 4.75313 18.6788C4.73262 18.3786 4.82682 18.0818 5.01669 17.8484C5.20655 17.615 5.47794 17.4624 5.776 17.4214L5.9375 17.4103H13.0593ZM19.3958 12.6651C19.6967 12.6652 19.9863 12.7795 20.2062 12.9849C20.426 13.1903 20.5597 13.4715 20.5802 13.7716C20.6007 14.0718 20.5065 14.3686 20.3167 14.602C20.1268 14.8354 19.8554 14.988 19.5573 15.029L19.3958 15.0401H5.9375C5.63449 15.0432 5.34176 14.9303 5.11926 14.7246C4.89676 14.5189 4.76132 14.2359 4.74068 13.9335C4.72004 13.6312 4.81576 13.3324 5.00823 13.0984C5.20071 12.8643 5.47538 12.7127 5.776 12.6746L5.9375 12.6651H19.3958ZM19.3958 7.91667C19.6967 7.91676 19.9863 8.03105 20.2062 8.23646C20.426 8.44186 20.5597 8.72306 20.5802 9.02323C20.6007 9.3234 20.5065 9.62016 20.3167 9.85356C20.1268 10.0869 19.8554 10.2396 19.5573 10.2806L19.3958 10.2917H5.9375C5.63663 10.2916 5.34701 10.1773 5.12716 9.97188C4.90732 9.76647 4.77363 9.48528 4.75313 9.18511C4.73262 8.88494 4.82682 8.58817 5.01669 8.35478C5.20655 8.12138 5.47794 7.96876 5.776 7.92775L5.9375 7.91508H19.3958V7.91667Z" fill="#8D8D8D"/>
</svg>
