<svg width="36" height="12" viewBox="0 0 36 12" fill="none" xmlns="http://www.w3.org/2000/svg">
<path d="M18.6183 3.71643C18.5978 5.33587 20.0616 6.23953 21.1642 6.77685C22.2971 7.3281 22.6776 7.68164 22.6731 8.17467C22.6647 8.92912 21.7695 9.26212 20.9318 9.27506C19.4702 9.2977 18.6204 8.88046 17.9449 8.5649L17.4184 11.0285C18.0962 11.3408 19.3513 11.6132 20.6528 11.6252C23.7078 11.6252 25.7065 10.1171 25.7174 7.77895C25.7293 4.81148 21.6128 4.64723 21.6409 3.32086C21.6506 2.91867 22.0344 2.48948 22.8753 2.38036C23.2916 2.32523 24.4406 2.28304 25.7434 2.88295L26.2547 0.499355C25.5541 0.244262 24.6537 -3.8147e-06 23.5326 -3.8147e-06C20.6571 -3.8147e-06 18.6346 1.52859 18.6183 3.71643ZM31.1678 0.205308C30.61 0.205308 30.1399 0.530714 29.9301 1.03007L25.566 11.4501H28.6189L29.2264 9.77118H32.9569L33.3093 11.4501H36L33.652 0.205308H31.1678ZM31.5949 3.24295L32.4759 7.4655H30.0631L31.5949 3.24295ZM14.9169 0.205448L12.5106 11.45H15.4197L17.8249 0.205168H14.9169V0.205448ZM10.6134 0.205168L7.58545 7.85896L6.36061 1.35126C6.21689 0.624793 5.64933 0.205308 5.01905 0.205308H0.0693281L0 0.531839C1.01616 0.752339 2.17069 1.10798 2.87016 1.48851C3.29822 1.72096 3.42028 1.92417 3.56091 2.47654L5.8808 11.4501H8.955L13.6682 0.205308H10.6134" fill="url(#paint0_linear_2_112)"/>
<defs>
<linearGradient id="paint0_linear_2_112" x1="16.5506" y1="11.8584" x2="16.8871" y2="-0.0808539" gradientUnits="userSpaceOnUse">
<stop stop-color="#222357"/>
<stop offset="1" stop-color="#254AA5"/>
</linearGradient>
</defs>
</svg>
