<svg xmlns="http://www.w3.org/2000/svg" xml:space="preserve" width="655.359" height="655.359" style="shape-rendering:geometricPrecision;text-rendering:geometricPrecision;image-rendering:optimizeQuality;fill-rule:evenodd;clip-rule:evenodd" viewBox="0 0 6.827 6.827"><defs><style>.fil0{fill:none}</style></defs><g id="Layer_x0020_1"><g id="_486850792"><path id="_486850144" class="fil0" d="M0 0h6.827v6.827H0z"/><path id="_486850552" class="fil0" d="M.853.853h5.12v5.12H.853z"/></g><g id="_486849568"><path id="_486849592" d="M3.467 3.063 5.554.92a.244.244 0 0 1 .35.341L3.808 3.413l-.341.35-2.088 2.144a.244.244 0 0 1-.35-.34l2.097-2.154.34-.35z" style="fill:#00bfa5"/><path id="_486850024" d="m1.38.92 2.087 2.143.34.35 2.097 2.154a.244.244 0 0 1-.35.34L3.467 3.763l-.341-.35L1.029 1.26a.244.244 0 0 1 .35-.34z" style="fill:#1de9b6"/></g></g></svg>