<svg width="27" height="17" viewBox="0 0 27 17" fill="none" xmlns="http://www.w3.org/2000/svg">
<path d="M9.10125 5.89875C9.01416 5.81144 8.91071 5.74218 8.79681 5.69491C8.68292 5.64765 8.56081 5.62332 8.4375 5.62332C8.31419 5.62332 8.19208 5.64765 8.07819 5.69491C7.96429 5.74218 7.86084 5.81144 7.77375 5.89875L6.5625 7.11188L5.35125 5.89875C5.26409 5.81158 5.16061 5.74244 5.04672 5.69527C4.93283 5.6481 4.81077 5.62382 4.6875 5.62382C4.56423 5.62382 4.44217 5.6481 4.32828 5.69527C4.21439 5.74244 4.11091 5.81158 4.02375 5.89875C3.93658 5.98591 3.86744 6.08939 3.82027 6.20328C3.7731 6.31717 3.74882 6.43923 3.74882 6.5625C3.74882 6.68577 3.7731 6.80783 3.82027 6.92172C3.86744 7.03561 3.93658 7.13909 4.02375 7.22625L5.23688 8.4375L4.02375 9.64875C3.93658 9.73592 3.86744 9.83939 3.82027 9.95328C3.7731 10.0672 3.74882 10.1892 3.74882 10.3125C3.74882 10.4358 3.7731 10.5578 3.82027 10.6717C3.86744 10.7856 3.93658 10.8891 4.02375 10.9762C4.19979 11.1523 4.43855 11.2512 4.6875 11.2512C4.81077 11.2512 4.93283 11.2269 5.04672 11.1797C5.16061 11.1326 5.26409 11.0634 5.35125 10.9762L6.5625 9.76312L7.77375 10.9762C7.86091 11.0634 7.96439 11.1326 8.07828 11.1797C8.19217 11.2269 8.31423 11.2512 8.4375 11.2512C8.56077 11.2512 8.68283 11.2269 8.79672 11.1797C8.91061 11.1326 9.01408 11.0634 9.10125 10.9762C9.18842 10.8891 9.25756 10.7856 9.30473 10.6717C9.3519 10.5578 9.37618 10.4358 9.37618 10.3125C9.37618 10.1892 9.3519 10.0672 9.30473 9.95328C9.25756 9.83939 9.18842 9.73592 9.10125 9.64875L7.88812 8.4375L9.10125 7.22625C9.18856 7.13916 9.25782 7.03571 9.30509 6.92181C9.35235 6.80792 9.37668 6.68581 9.37668 6.5625C9.37668 6.43919 9.35235 6.31708 9.30509 6.20319C9.25782 6.08929 9.18856 5.98584 9.10125 5.89875ZM15.2738 5.89875C15.3609 5.81158 15.4644 5.74244 15.5783 5.69527C15.6922 5.6481 15.8142 5.62382 15.9375 5.62382C16.0608 5.62382 16.1828 5.6481 16.2967 5.69527C16.4106 5.74244 16.5141 5.81158 16.6012 5.89875C16.6884 5.98591 16.7576 6.08939 16.8047 6.20328C16.8519 6.31717 16.8762 6.43923 16.8762 6.5625C16.8762 6.68577 16.8519 6.80783 16.8047 6.92172C16.7576 7.03561 16.6884 7.13909 16.6012 7.22625L15.3881 8.4375L16.6012 9.64875C16.7773 9.82479 16.8762 10.0635 16.8762 10.3125C16.8762 10.5615 16.7773 10.8002 16.6012 10.9762C16.4252 11.1523 16.1865 11.2512 15.9375 11.2512C15.6885 11.2512 15.4498 11.1523 15.2738 10.9762L14.0625 9.76312L12.8512 10.9762C12.7641 11.0634 12.6606 11.1326 12.5467 11.1797C12.4328 11.2269 12.3108 11.2512 12.1875 11.2512C12.0642 11.2512 11.9422 11.2269 11.8283 11.1797C11.7144 11.1326 11.6109 11.0634 11.5238 10.9762C11.4366 10.8891 11.3674 10.7856 11.3203 10.6717C11.2731 10.5578 11.2488 10.4358 11.2488 10.3125C11.2488 10.1892 11.2731 10.0672 11.3203 9.95328C11.3674 9.83939 11.4366 9.73592 11.5238 9.64875L12.7369 8.4375L11.5238 7.22625C11.4366 7.13909 11.3674 7.03561 11.3203 6.92172C11.2731 6.80783 11.2488 6.68577 11.2488 6.5625C11.2488 6.43923 11.2731 6.31717 11.3203 6.20328C11.3674 6.08939 11.4366 5.98591 11.5238 5.89875C11.6109 5.81158 11.7144 5.74244 11.8283 5.69527C11.9422 5.6481 12.0642 5.62382 12.1875 5.62382C12.3108 5.62382 12.4328 5.6481 12.5467 5.69527C12.6606 5.74244 12.7641 5.81158 12.8512 5.89875L14.0625 7.11188L15.2738 5.89875ZM19.6875 9.375C19.4389 9.375 19.2004 9.47377 19.0246 9.64959C18.8488 9.8254 18.75 10.0639 18.75 10.3125C18.75 10.5611 18.8488 10.7996 19.0246 10.9754C19.2004 11.1512 19.4389 11.25 19.6875 11.25H21.5625C21.8111 11.25 22.0496 11.1512 22.2254 10.9754C22.4012 10.7996 22.5 10.5611 22.5 10.3125C22.5 10.0639 22.4012 9.8254 22.2254 9.64959C22.0496 9.47377 21.8111 9.375 21.5625 9.375H19.6875ZM4.6875 0C3.4443 0 2.25201 0.49386 1.37294 1.37294C0.49386 2.25201 0 3.4443 0 4.6875V12.1875C0 12.8031 0.121246 13.4126 0.356815 13.9813C0.592384 14.55 0.937662 15.0668 1.37294 15.5021C2.25201 16.3811 3.4443 16.875 4.6875 16.875H21.5625C22.1781 16.875 22.7876 16.7538 23.3563 16.5182C23.925 16.2826 24.4418 15.9373 24.8771 15.5021C25.3123 15.0668 25.6576 14.55 25.8932 13.9813C26.1288 13.4126 26.25 12.8031 26.25 12.1875V4.6875C26.25 3.4443 25.7561 2.25201 24.8771 1.37294C23.998 0.49386 22.8057 0 21.5625 0H4.6875ZM1.875 4.6875C1.875 3.94158 2.17132 3.22621 2.69876 2.69876C3.22621 2.17132 3.94158 1.875 4.6875 1.875H21.5625C22.3084 1.875 23.0238 2.17132 23.5512 2.69876C24.0787 3.22621 24.375 3.94158 24.375 4.6875V12.1875C24.375 12.9334 24.0787 13.6488 23.5512 14.1762C23.0238 14.7037 22.3084 15 21.5625 15H4.6875C3.94158 15 3.22621 14.7037 2.69876 14.1762C2.17132 13.6488 1.875 12.9334 1.875 12.1875V4.6875Z" fill="#DDDDDD"/>
</svg>
